<mxfile host="app.diagrams.net" agent="Mozilla/5.0 (Windows NT 10.0; Win64; x64; rv:132.0) Gecko/20100101 Firefox/132.0" version="24.8.4">
  <diagram name="Сторінка-1" id="bZAx4sWkUdDhbsRSkGG5">
    <mxGraphModel grid="1" page="1" gridSize="10" guides="1" tooltips="1" connect="1" arrows="1" fold="1" pageScale="1" pageWidth="827" pageHeight="1169" math="0" shadow="0">
      <root>
        <mxCell id="0" />
        <mxCell id="1" parent="0" />
        <mxCell id="WIFqtj319x8PpYkYXQ6n-2" style="edgeStyle=orthogonalEdgeStyle;rounded=0;orthogonalLoop=1;jettySize=auto;html=1;" edge="1" parent="1" source="WIFqtj319x8PpYkYXQ6n-1" target="WIFqtj319x8PpYkYXQ6n-3">
          <mxGeometry relative="1" as="geometry">
            <mxPoint x="380" y="160" as="targetPoint" />
          </mxGeometry>
        </mxCell>
        <mxCell id="WIFqtj319x8PpYkYXQ6n-1" value="Start" style="ellipse;whiteSpace=wrap;html=1;" vertex="1" parent="1">
          <mxGeometry x="320" y="40" width="120" height="80" as="geometry" />
        </mxCell>
        <mxCell id="WIFqtj319x8PpYkYXQ6n-6" value="" style="edgeStyle=orthogonalEdgeStyle;rounded=0;orthogonalLoop=1;jettySize=auto;html=1;" edge="1" parent="1" source="WIFqtj319x8PpYkYXQ6n-3" target="WIFqtj319x8PpYkYXQ6n-4">
          <mxGeometry relative="1" as="geometry" />
        </mxCell>
        <mxCell id="WIFqtj319x8PpYkYXQ6n-3" value="&lt;div&gt;int minutes1, minutes2, hours&lt;/div&gt;&lt;div&gt;long longmin, longhour&lt;br&gt;&lt;/div&gt;" style="rounded=0;whiteSpace=wrap;html=1;" vertex="1" parent="1">
          <mxGeometry x="290" y="160" width="180" height="60" as="geometry" />
        </mxCell>
        <mxCell id="WIFqtj319x8PpYkYXQ6n-7" style="edgeStyle=orthogonalEdgeStyle;rounded=0;orthogonalLoop=1;jettySize=auto;html=1;" edge="1" parent="1" source="WIFqtj319x8PpYkYXQ6n-4">
          <mxGeometry relative="1" as="geometry">
            <mxPoint x="380" y="360" as="targetPoint" />
          </mxGeometry>
        </mxCell>
        <mxCell id="WIFqtj319x8PpYkYXQ6n-4" value="&lt;div&gt;Output &quot;Enter the number of hours and minutes separated by&amp;nbsp; a&amp;nbsp;&lt;/div&gt;&lt;div&gt;single space that you want to convert to minutes.&quot; endl&lt;br&gt;&lt;/div&gt;" style="shape=parallelogram;perimeter=parallelogramPerimeter;whiteSpace=wrap;html=1;fixedSize=1;" vertex="1" parent="1">
          <mxGeometry x="255" y="260" width="250" height="60" as="geometry" />
        </mxCell>
        <mxCell id="WIFqtj319x8PpYkYXQ6n-11" value="" style="edgeStyle=orthogonalEdgeStyle;rounded=0;orthogonalLoop=1;jettySize=auto;html=1;" edge="1" parent="1" source="WIFqtj319x8PpYkYXQ6n-8" target="WIFqtj319x8PpYkYXQ6n-9">
          <mxGeometry relative="1" as="geometry" />
        </mxCell>
        <mxCell id="WIFqtj319x8PpYkYXQ6n-8" value="Input hours, minutes 1" style="shape=parallelogram;perimeter=parallelogramPerimeter;whiteSpace=wrap;html=1;fixedSize=1;" vertex="1" parent="1">
          <mxGeometry x="305" y="360" width="150" height="60" as="geometry" />
        </mxCell>
        <mxCell id="WIFqtj319x8PpYkYXQ6n-12" style="edgeStyle=orthogonalEdgeStyle;rounded=0;orthogonalLoop=1;jettySize=auto;html=1;" edge="1" parent="1" source="WIFqtj319x8PpYkYXQ6n-9">
          <mxGeometry relative="1" as="geometry">
            <mxPoint x="380" y="570" as="targetPoint" />
          </mxGeometry>
        </mxCell>
        <mxCell id="WIFqtj319x8PpYkYXQ6n-9" value="&lt;div&gt;longmin=minutes 1&lt;/div&gt;&lt;div&gt;long hour=hours&lt;br&gt;&lt;/div&gt;" style="rounded=0;whiteSpace=wrap;html=1;" vertex="1" parent="1">
          <mxGeometry x="320" y="460" width="120" height="60" as="geometry" />
        </mxCell>
        <mxCell id="WIFqtj319x8PpYkYXQ6n-14" style="edgeStyle=orthogonalEdgeStyle;rounded=0;orthogonalLoop=1;jettySize=auto;html=1;" edge="1" parent="1" source="WIFqtj319x8PpYkYXQ6n-13">
          <mxGeometry relative="1" as="geometry">
            <mxPoint x="380" y="680" as="targetPoint" />
          </mxGeometry>
        </mxCell>
        <mxCell id="WIFqtj319x8PpYkYXQ6n-13" value="&lt;div&gt;HourandMintoMin&lt;/div&gt;&lt;div&gt;(hours, minutes1)&lt;br&gt;&lt;/div&gt;" style="shape=process;whiteSpace=wrap;html=1;backgroundOutline=1;" vertex="1" parent="1">
          <mxGeometry x="315" y="570" width="130" height="60" as="geometry" />
        </mxCell>
        <mxCell id="WIFqtj319x8PpYkYXQ6n-15" value="Output&amp;nbsp;&lt;div&gt;HourandMintoMin(hours, minutes1)&amp;nbsp;&lt;/div&gt;&lt;div&gt;&quot; minutes.&quot; endl&lt;br&gt;&lt;/div&gt; " style="shape=parallelogram;perimeter=parallelogramPerimeter;whiteSpace=wrap;html=1;fixedSize=1;" vertex="1" parent="1">
          <mxGeometry x="260" y="680" width="240" height="60" as="geometry" />
        </mxCell>
        <mxCell id="WIFqtj319x8PpYkYXQ6n-16" value="" style="endArrow=none;html=1;rounded=0;" edge="1" parent="1">
          <mxGeometry width="50" height="50" relative="1" as="geometry">
            <mxPoint x="380" y="800" as="sourcePoint" />
            <mxPoint x="380" y="740" as="targetPoint" />
          </mxGeometry>
        </mxCell>
        <mxCell id="WIFqtj319x8PpYkYXQ6n-18" value="1" style="ellipse;whiteSpace=wrap;html=1;aspect=fixed;" vertex="1" parent="1">
          <mxGeometry x="370" y="800" width="20" height="20" as="geometry" />
        </mxCell>
        <mxCell id="WIFqtj319x8PpYkYXQ6n-21" value="" style="edgeStyle=orthogonalEdgeStyle;rounded=0;orthogonalLoop=1;jettySize=auto;html=1;" edge="1" parent="1" source="WIFqtj319x8PpYkYXQ6n-19" target="WIFqtj319x8PpYkYXQ6n-20">
          <mxGeometry relative="1" as="geometry" />
        </mxCell>
        <mxCell id="WIFqtj319x8PpYkYXQ6n-19" value="1" style="ellipse;whiteSpace=wrap;html=1;aspect=fixed;" vertex="1" parent="1">
          <mxGeometry x="670" y="70" width="20" height="20" as="geometry" />
        </mxCell>
        <mxCell id="WIFqtj319x8PpYkYXQ6n-23" value="" style="edgeStyle=orthogonalEdgeStyle;rounded=0;orthogonalLoop=1;jettySize=auto;html=1;" edge="1" parent="1" source="WIFqtj319x8PpYkYXQ6n-20" target="WIFqtj319x8PpYkYXQ6n-22">
          <mxGeometry relative="1" as="geometry" />
        </mxCell>
        <mxCell id="WIFqtj319x8PpYkYXQ6n-20" value="&lt;div&gt;HourandMintoMin&lt;/div&gt;&lt;div&gt;(longhour, longmin)&lt;br&gt;&lt;/div&gt;" style="shape=process;whiteSpace=wrap;html=1;backgroundOutline=1;" vertex="1" parent="1">
          <mxGeometry x="607.5" y="140" width="145" height="60" as="geometry" />
        </mxCell>
        <mxCell id="WIFqtj319x8PpYkYXQ6n-24" style="edgeStyle=orthogonalEdgeStyle;rounded=0;orthogonalLoop=1;jettySize=auto;html=1;" edge="1" parent="1" source="WIFqtj319x8PpYkYXQ6n-22">
          <mxGeometry relative="1" as="geometry">
            <mxPoint x="680" y="340" as="targetPoint" />
          </mxGeometry>
        </mxCell>
        <mxCell id="WIFqtj319x8PpYkYXQ6n-22" value="Output&amp;nbsp;&lt;div&gt;HourandMintoMin(longhour, longmin)&lt;/div&gt;&lt;div&gt;endl&lt;br&gt;&lt;/div&gt; " style="shape=parallelogram;perimeter=parallelogramPerimeter;whiteSpace=wrap;html=1;fixedSize=1;" vertex="1" parent="1">
          <mxGeometry x="560" y="240" width="240" height="60" as="geometry" />
        </mxCell>
        <mxCell id="WIFqtj319x8PpYkYXQ6n-26" style="edgeStyle=orthogonalEdgeStyle;rounded=0;orthogonalLoop=1;jettySize=auto;html=1;" edge="1" parent="1" source="WIFqtj319x8PpYkYXQ6n-25" target="WIFqtj319x8PpYkYXQ6n-27">
          <mxGeometry relative="1" as="geometry">
            <mxPoint x="680" y="440" as="targetPoint" />
          </mxGeometry>
        </mxCell>
        <mxCell id="WIFqtj319x8PpYkYXQ6n-25" value="&lt;div&gt;Output &lt;br&gt;&lt;/div&gt;&lt;div&gt;&quot;Now enter the number of minutes you want&amp;nbsp;&lt;/div&gt;&lt;div&gt;to convert into hours and minutes.&quot; endl&lt;br&gt;&lt;/div&gt;" style="shape=parallelogram;perimeter=parallelogramPerimeter;whiteSpace=wrap;html=1;fixedSize=1;" vertex="1" parent="1">
          <mxGeometry x="545" y="340" width="270" height="60" as="geometry" />
        </mxCell>
        <mxCell id="WIFqtj319x8PpYkYXQ6n-29" value="" style="edgeStyle=orthogonalEdgeStyle;rounded=0;orthogonalLoop=1;jettySize=auto;html=1;" edge="1" parent="1" source="WIFqtj319x8PpYkYXQ6n-27" target="WIFqtj319x8PpYkYXQ6n-28">
          <mxGeometry relative="1" as="geometry" />
        </mxCell>
        <mxCell id="WIFqtj319x8PpYkYXQ6n-27" value="Input minutes2;" style="shape=parallelogram;perimeter=parallelogramPerimeter;whiteSpace=wrap;html=1;fixedSize=1;" vertex="1" parent="1">
          <mxGeometry x="620" y="440" width="120" height="60" as="geometry" />
        </mxCell>
        <mxCell id="WIFqtj319x8PpYkYXQ6n-30" style="edgeStyle=orthogonalEdgeStyle;rounded=0;orthogonalLoop=1;jettySize=auto;html=1;" edge="1" parent="1" source="WIFqtj319x8PpYkYXQ6n-28" target="WIFqtj319x8PpYkYXQ6n-31">
          <mxGeometry relative="1" as="geometry">
            <mxPoint x="680" y="640" as="targetPoint" />
          </mxGeometry>
        </mxCell>
        <mxCell id="WIFqtj319x8PpYkYXQ6n-28" value="&lt;div&gt;MintoHourandMin&lt;/div&gt;&lt;div&gt;(minutes2)&lt;/div&gt;" style="shape=process;whiteSpace=wrap;html=1;backgroundOutline=1;" vertex="1" parent="1">
          <mxGeometry x="620" y="540" width="120" height="60" as="geometry" />
        </mxCell>
        <mxCell id="WIFqtj319x8PpYkYXQ6n-31" value="End" style="ellipse;whiteSpace=wrap;html=1;" vertex="1" parent="1">
          <mxGeometry x="620" y="640" width="120" height="80" as="geometry" />
        </mxCell>
        <mxCell id="WIFqtj319x8PpYkYXQ6n-32" value="int HourandMintoMin (int hour, int minute)" style="text;html=1;align=center;verticalAlign=middle;resizable=0;points=[];autosize=1;strokeColor=none;fillColor=none;fontSize=18;fontStyle=1" vertex="1" parent="1">
          <mxGeometry x="835" y="60" width="350" height="40" as="geometry" />
        </mxCell>
        <mxCell id="WIFqtj319x8PpYkYXQ6n-33" value="long HourandMintoMin (long hour, long minute)" style="text;html=1;align=center;verticalAlign=middle;resizable=0;points=[];autosize=1;strokeColor=none;fillColor=none;fontSize=18;fontStyle=1" vertex="1" parent="1">
          <mxGeometry x="1254" y="60" width="400" height="40" as="geometry" />
        </mxCell>
        <mxCell id="WIFqtj319x8PpYkYXQ6n-35" style="edgeStyle=orthogonalEdgeStyle;rounded=0;orthogonalLoop=1;jettySize=auto;html=1;" edge="1" parent="1" source="WIFqtj319x8PpYkYXQ6n-34" target="WIFqtj319x8PpYkYXQ6n-36">
          <mxGeometry relative="1" as="geometry">
            <mxPoint x="1000" y="240" as="targetPoint" />
          </mxGeometry>
        </mxCell>
        <mxCell id="WIFqtj319x8PpYkYXQ6n-34" value="Start" style="ellipse;whiteSpace=wrap;html=1;" vertex="1" parent="1">
          <mxGeometry x="940" y="110" width="120" height="80" as="geometry" />
        </mxCell>
        <mxCell id="WIFqtj319x8PpYkYXQ6n-36" value="return hour*60+minute " style="ellipse;whiteSpace=wrap;html=1;" vertex="1" parent="1">
          <mxGeometry x="940" y="230" width="120" height="80" as="geometry" />
        </mxCell>
        <mxCell id="WIFqtj319x8PpYkYXQ6n-37" style="edgeStyle=orthogonalEdgeStyle;rounded=0;orthogonalLoop=1;jettySize=auto;html=1;" edge="1" parent="1" source="WIFqtj319x8PpYkYXQ6n-38" target="WIFqtj319x8PpYkYXQ6n-39">
          <mxGeometry relative="1" as="geometry">
            <mxPoint x="1454" y="240" as="targetPoint" />
          </mxGeometry>
        </mxCell>
        <mxCell id="WIFqtj319x8PpYkYXQ6n-38" value="Start" style="ellipse;whiteSpace=wrap;html=1;" vertex="1" parent="1">
          <mxGeometry x="1394" y="110" width="120" height="80" as="geometry" />
        </mxCell>
        <mxCell id="WIFqtj319x8PpYkYXQ6n-39" value="return hour*60+minute " style="ellipse;whiteSpace=wrap;html=1;" vertex="1" parent="1">
          <mxGeometry x="1394" y="230" width="120" height="80" as="geometry" />
        </mxCell>
        <mxCell id="WIFqtj319x8PpYkYXQ6n-41" value="&lt;font style=&quot;font-size: 18px;&quot;&gt;&lt;b&gt;void MintoHourandMin (int minute)&lt;br&gt;&lt;/b&gt;&lt;/font&gt;" style="text;html=1;align=center;verticalAlign=middle;resizable=0;points=[];autosize=1;strokeColor=none;fillColor=none;" vertex="1" parent="1">
          <mxGeometry x="1000" y="373" width="320" height="40" as="geometry" />
        </mxCell>
        <mxCell id="WIFqtj319x8PpYkYXQ6n-44" value="" style="edgeStyle=orthogonalEdgeStyle;rounded=0;orthogonalLoop=1;jettySize=auto;html=1;" edge="1" parent="1" source="WIFqtj319x8PpYkYXQ6n-42" target="WIFqtj319x8PpYkYXQ6n-43">
          <mxGeometry relative="1" as="geometry" />
        </mxCell>
        <mxCell id="WIFqtj319x8PpYkYXQ6n-42" value="Start" style="ellipse;whiteSpace=wrap;html=1;" vertex="1" parent="1">
          <mxGeometry x="1100" y="430" width="120" height="80" as="geometry" />
        </mxCell>
        <mxCell id="WIFqtj319x8PpYkYXQ6n-45" style="edgeStyle=orthogonalEdgeStyle;rounded=0;orthogonalLoop=1;jettySize=auto;html=1;" edge="1" parent="1" source="WIFqtj319x8PpYkYXQ6n-43">
          <mxGeometry relative="1" as="geometry">
            <mxPoint x="1160" y="640" as="targetPoint" />
          </mxGeometry>
        </mxCell>
        <mxCell id="WIFqtj319x8PpYkYXQ6n-43" value="&lt;div&gt;int hour=floor(minute/60)&lt;/div&gt;&lt;div&gt;int minute2=minute-hour*60&lt;br&gt;&lt;/div&gt;" style="rounded=0;whiteSpace=wrap;html=1;" vertex="1" parent="1">
          <mxGeometry x="1080" y="540" width="160" height="60" as="geometry" />
        </mxCell>
        <mxCell id="WIFqtj319x8PpYkYXQ6n-48" value="" style="edgeStyle=orthogonalEdgeStyle;rounded=0;orthogonalLoop=1;jettySize=auto;html=1;" edge="1" parent="1" source="WIFqtj319x8PpYkYXQ6n-46" target="WIFqtj319x8PpYkYXQ6n-47">
          <mxGeometry relative="1" as="geometry" />
        </mxCell>
        <mxCell id="WIFqtj319x8PpYkYXQ6n-46" value="&lt;div&gt;Output hour &quot; hours, &quot;&lt;/div&gt;&lt;div&gt;minute2 &quot; minutes.&quot;&lt;br&gt;&lt;/div&gt;" style="shape=parallelogram;perimeter=parallelogramPerimeter;whiteSpace=wrap;html=1;fixedSize=1;" vertex="1" parent="1">
          <mxGeometry x="1080" y="640" width="160" height="60" as="geometry" />
        </mxCell>
        <mxCell id="WIFqtj319x8PpYkYXQ6n-47" value="End" style="ellipse;whiteSpace=wrap;html=1;" vertex="1" parent="1">
          <mxGeometry x="1100" y="740" width="120" height="80" as="geometry" />
        </mxCell>
      </root>
    </mxGraphModel>
  </diagram>
</mxfile>
